<svg xmlns="http://www.w3.org/2000/svg" viewBox="0 0 400 300" fill="none">
  <defs>
    <radialGradient id="bg3" cx="50%" cy="50%" r="70%">
      <stop offset="0%" stop-color="#f0fdf4"/>
      <stop offset="100%" stop-color="#bbf7d0"/>
    </radialGradient>
  </defs>
  
  <rect width="400" height="300" fill="url(#bg3)"/>
  
  <!-- Bowl shadow -->
  <ellipse cx="200" cy="260" rx="130" ry="16" fill="#00000008"/>
  
  <!-- Bowl -->
  <ellipse cx="200" cy="225" rx="140" ry="32" fill="#e2e8f0"/>
  <path d="M60 225 Q80 280 200 280 Q320 280 340 225" fill="#f1f5f9"/>
  <ellipse cx="200" cy="225" rx="130" ry="25" fill="white"/>
  
  <!-- Lettuce leaves base -->
  <path d="M100 215 Q120 195 150 205 Q165 190 190 200 Q210 188 230 198 Q250 185 270 200 Q290 192 310 210" 
    fill="#4ade80" opacity="0.5"/>
  <path d="M105 218 Q125 200 155 208 Q170 195 195 203 Q215 192 235 201 Q255 190 275 205 Q295 198 305 215" 
    fill="#22c55e" opacity="0.6"/>
  
  <!-- Romaine leaves -->
  <path d="M130 220 Q135 170 150 160 Q155 170 160 220" fill="#86efac" opacity="0.9"/>
  <line x1="145" y1="165" x2="145" y2="215" stroke="#4ade80" stroke-width="1.5" opacity="0.5"/>
  
  <path d="M170 215 Q175 165 190 155 Q195 165 200 215" fill="#86efac" opacity="0.85"/>
  <line x1="185" y1="160" x2="185" y2="210" stroke="#4ade80" stroke-width="1.5" opacity="0.5"/>
  
  <path d="M210 218 Q215 170 228 162 Q233 172 238 218" fill="#86efac" opacity="0.9"/>
  <line x1="224" y1="166" x2="224" y2="213" stroke="#4ade80" stroke-width="1.5" opacity="0.5"/>
  
  <path d="M250 220 Q252 178 262 168 Q268 176 270 220" fill="#86efac" opacity="0.85"/>
  <line x1="260" y1="172" x2="260" y2="216" stroke="#4ade80" stroke-width="1.5" opacity="0.5"/>
  
  <!-- Croutons -->
  <rect x="150" y="195" width="18" height="14" rx="3" fill="#d97706" transform="rotate(-20 159 202)"/>
  <rect x="151" y="196" width="16" height="12" rx="2" fill="#f59e0b" transform="rotate(-20 159 202)" opacity="0.8"/>
  
  <rect x="200" y="190" width="16" height="13" rx="3" fill="#d97706" transform="rotate(15 208 196)"/>
  <rect x="201" y="191" width="14" height="11" rx="2" fill="#f59e0b" transform="rotate(15 208 196)" opacity="0.8"/>
  
  <rect x="240" y="198" width="15" height="12" rx="3" fill="#d97706" transform="rotate(-10 247 204)"/>
  <rect x="241" y="199" width="13" height="10" rx="2" fill="#f59e0b" transform="rotate(-10 247 204)" opacity="0.8"/>
  
  <rect x="175" y="205" width="14" height="11" rx="3" fill="#d97706" transform="rotate(25 182 210)"/>
  <rect x="176" y="206" width="12" height="9" rx="2" fill="#f59e0b" transform="rotate(25 182 210)" opacity="0.8"/>
  
  <!-- Parmesan shavings -->
  <path d="M160 185 Q165 180 172 183 Q168 188 160 185Z" fill="#fef9c3" opacity="0.9"/>
  <path d="M215 182 Q220 177 226 180 Q222 186 215 182Z" fill="#fef9c3" opacity="0.85"/>
  <path d="M185 192 Q189 187 195 189 Q191 194 185 192Z" fill="#fef9c3" opacity="0.8"/>
  <path d="M255 190 Q258 185 264 188 Q260 193 255 190Z" fill="#fef9c3" opacity="0.85"/>
  
  <!-- Dressing drizzle -->
  <path d="M140 208 Q170 200 200 210 Q230 205 260 212 Q280 208 290 215" 
    stroke="#fef3c7" stroke-width="3" fill="none" opacity="0.6" stroke-linecap="round"/>
  <path d="M150 214 Q180 208 210 215 Q240 210 270 218" 
    stroke="#fef3c7" stroke-width="2" fill="none" opacity="0.4" stroke-linecap="round"/>
  
  <!-- Black pepper specks -->
  <circle cx="165" cy="200" r="1" fill="#1c1917" opacity="0.4"/>
  <circle cx="195" cy="198" r="0.8" fill="#1c1917" opacity="0.35"/>
  <circle cx="225" cy="202" r="1" fill="#1c1917" opacity="0.4"/>
  <circle cx="250" cy="205" r="0.8" fill="#1c1917" opacity="0.3"/>
</svg>
