<svg xmlns="http://www.w3.org/2000/svg" viewBox="0 0 1200 700" fill="none">
  <!-- Background -->
  <rect width="1200" height="700" fill="#1e293b"/>
  
  <!-- Sidebar -->
  <rect x="0" y="0" width="220" height="700" fill="#0f172a"/>
  <rect x="20" y="20" width="180" height="36" rx="8" fill="#1e40af" opacity="0.6"/>
  <rect x="30" y="30" width="16" height="16" rx="4" fill="white" opacity="0.8"/>
  <text x="54" y="43" fill="white" font-family="sans-serif" font-size="13" font-weight="600" opacity="0.9">Orchestrator.ai</text>
  
  <!-- Sidebar items -->
  <rect x="20" y="80" width="180" height="36" rx="6" fill="#2463eb" opacity="0.3"/>
  <rect x="32" y="90" width="14" height="14" rx="3" fill="#60a5fa" opacity="0.7"/>
  <rect x="54" y="92" width="80" height="10" rx="3" fill="white" opacity="0.5"/>
  
  <rect x="32" y="130" width="14" height="14" rx="3" fill="#94a3b8" opacity="0.4"/>
  <rect x="54" y="132" width="70" height="10" rx="3" fill="#94a3b8" opacity="0.3"/>
  
  <rect x="32" y="164" width="14" height="14" rx="3" fill="#94a3b8" opacity="0.4"/>
  <rect x="54" y="166" width="90" height="10" rx="3" fill="#94a3b8" opacity="0.3"/>
  
  <rect x="32" y="198" width="14" height="14" rx="3" fill="#94a3b8" opacity="0.4"/>
  <rect x="54" y="200" width="60" height="10" rx="3" fill="#94a3b8" opacity="0.3"/>
  
  <rect x="32" y="232" width="14" height="14" rx="3" fill="#94a3b8" opacity="0.4"/>
  <rect x="54" y="234" width="100" height="10" rx="3" fill="#94a3b8" opacity="0.3"/>
  
  <!-- Top bar -->
  <rect x="220" y="0" width="980" height="56" fill="#1e293b"/>
  <rect x="240" y="16" width="200" height="24" rx="6" fill="#334155"/>
  <rect x="250" y="22" width="12" height="12" rx="2" fill="#64748b"/>
  <rect x="268" y="24" width="100" height="8" rx="3" fill="#475569"/>
  
  <circle cx="1100" cy="28" r="16" fill="#334155"/>
  <circle cx="1060" cy="28" r="16" fill="#334155"/>
  
  <!-- Main content area -->
  <rect x="220" y="56" width="980" height="644" fill="#f1f5f9"/>
  
  <!-- Title area -->
  <rect x="250" y="76" width="200" height="14" rx="4" fill="#1e293b" opacity="0.8"/>
  <rect x="250" y="98" width="140" height="10" rx="3" fill="#94a3b8" opacity="0.5"/>
  
  <!-- KPI Cards Row -->
  <rect x="250" y="128" width="220" height="100" rx="12" fill="white" filter="url(#shadow)"/>
  <rect x="270" y="146" width="80" height="10" rx="3" fill="#94a3b8"/>
  <rect x="270" y="166" width="120" height="22" rx="4" fill="#1e293b"/>
  <rect x="270" y="198" width="60" height="8" rx="3" fill="#10b981"/>
  <circle cx="440" cy="170" r="20" fill="#dbeafe" opacity="0.6"/>
  <circle cx="440" cy="170" r="12" fill="#2463eb" opacity="0.4"/>
  
  <rect x="486" y="128" width="220" height="100" rx="12" fill="white"/>
  <rect x="506" y="146" width="90" height="10" rx="3" fill="#94a3b8"/>
  <rect x="506" y="166" width="100" height="22" rx="4" fill="#1e293b"/>
  <rect x="506" y="198" width="50" height="8" rx="3" fill="#ef4444"/>
  <circle cx="676" cy="170" r="20" fill="#fef3c7" opacity="0.6"/>
  <circle cx="676" cy="170" r="12" fill="#f59e0b" opacity="0.4"/>
  
  <rect x="722" y="128" width="220" height="100" rx="12" fill="white"/>
  <rect x="742" y="146" width="70" height="10" rx="3" fill="#94a3b8"/>
  <rect x="742" y="166" width="80" height="22" rx="4" fill="#1e293b"/>
  <rect x="742" y="198" width="55" height="8" rx="3" fill="#2463eb"/>
  <circle cx="912" cy="170" r="20" fill="#d1fae5" opacity="0.6"/>
  <circle cx="912" cy="170" r="12" fill="#10b981" opacity="0.4"/>

  <rect x="958" y="128" width="220" height="100" rx="12" fill="white"/>
  <rect x="978" y="146" width="60" height="10" rx="3" fill="#94a3b8"/>
  <rect x="978" y="166" width="110" height="22" rx="4" fill="#1e293b"/>
  <rect x="978" y="198" width="45" height="8" rx="3" fill="#8b5cf6"/>
  <circle cx="1148" cy="170" r="20" fill="#ede9fe" opacity="0.6"/>
  <circle cx="1148" cy="170" r="12" fill="#8b5cf6" opacity="0.4"/>
  
  <!-- Chart area -->
  <rect x="250" y="248" width="700" height="310" rx="12" fill="white"/>
  <rect x="270" y="266" width="120" height="12" rx="4" fill="#1e293b" opacity="0.7"/>
  <rect x="270" y="286" width="80" height="8" rx="3" fill="#94a3b8" opacity="0.4"/>
  
  <!-- Chart grid lines -->
  <line x1="290" y1="330" x2="920" y2="330" stroke="#f1f5f9" stroke-width="1"/>
  <line x1="290" y1="370" x2="920" y2="370" stroke="#f1f5f9" stroke-width="1"/>
  <line x1="290" y1="410" x2="920" y2="410" stroke="#f1f5f9" stroke-width="1"/>
  <line x1="290" y1="450" x2="920" y2="450" stroke="#f1f5f9" stroke-width="1"/>
  <line x1="290" y1="490" x2="920" y2="490" stroke="#f1f5f9" stroke-width="1"/>
  
  <!-- Chart line -->
  <polyline points="290,470 360,440 430,460 500,400 570,380 640,350 710,370 780,320 850,310 920,330" 
    stroke="#2463eb" stroke-width="3" fill="none" stroke-linecap="round" stroke-linejoin="round"/>
  <path d="M290,470 360,440 430,460 500,400 570,380 640,350 710,370 780,320 850,310 920,330 920,520 290,520 Z" 
    fill="url(#chartGrad)" opacity="0.15"/>
  
  <!-- Second chart line -->
  <polyline points="290,490 360,480 430,470 500,450 570,460 640,430 710,440 780,410 850,420 920,400" 
    stroke="#10b981" stroke-width="2" fill="none" stroke-linecap="round" stroke-linejoin="round" stroke-dasharray="6 4"/>
  
  <!-- Right sidebar panel -->
  <rect x="966" y="248" width="212" height="310" rx="12" fill="white"/>
  <rect x="982" y="266" width="100" height="12" rx="4" fill="#1e293b" opacity="0.7"/>
  
  <!-- List items -->
  <rect x="982" y="296" width="180" height="40" rx="6" fill="#f8fafc"/>
  <rect x="992" y="306" width="100" height="8" rx="3" fill="#64748b"/>
  <rect x="992" y="320" width="60" height="6" rx="3" fill="#94a3b8"/>
  <circle cx="1142" cy="316" r="8" fill="#10b981" opacity="0.3"/>
  
  <rect x="982" y="346" width="180" height="40" rx="6" fill="#f8fafc"/>
  <rect x="992" y="356" width="80" height="8" rx="3" fill="#64748b"/>
  <rect x="992" y="370" width="50" height="6" rx="3" fill="#94a3b8"/>
  <circle cx="1142" cy="366" r="8" fill="#f59e0b" opacity="0.3"/>
  
  <rect x="982" y="396" width="180" height="40" rx="6" fill="#f8fafc"/>
  <rect x="992" y="406" width="110" height="8" rx="3" fill="#64748b"/>
  <rect x="992" y="420" width="70" height="6" rx="3" fill="#94a3b8"/>
  <circle cx="1142" cy="416" r="8" fill="#ef4444" opacity="0.3"/>
  
  <rect x="982" y="446" width="180" height="40" rx="6" fill="#f8fafc"/>
  <rect x="992" y="456" width="90" height="8" rx="3" fill="#64748b"/>
  <rect x="992" y="470" width="55" height="6" rx="3" fill="#94a3b8"/>
  <circle cx="1142" cy="466" r="8" fill="#2463eb" opacity="0.3"/>
  
  <!-- Table area -->
  <rect x="250" y="576" width="928" height="104" rx="12" fill="white"/>
  <rect x="270" y="594" width="100" height="10" rx="3" fill="#1e293b" opacity="0.7"/>
  
  <!-- Table header -->
  <rect x="270" y="616" width="888" height="1" fill="#e2e8f0"/>
  <rect x="270" y="628" width="80" height="8" rx="3" fill="#94a3b8"/>
  <rect x="400" y="628" width="60" height="8" rx="3" fill="#94a3b8"/>
  <rect x="530" y="628" width="70" height="8" rx="3" fill="#94a3b8"/>
  <rect x="680" y="628" width="50" height="8" rx="3" fill="#94a3b8"/>
  <rect x="830" y="628" width="90" height="8" rx="3" fill="#94a3b8"/>
  
  <!-- Table row -->
  <rect x="270" y="648" width="888" height="1" fill="#f1f5f9"/>
  <rect x="270" y="658" width="100" height="8" rx="3" fill="#64748b" opacity="0.6"/>
  <rect x="400" y="658" width="50" height="8" rx="3" fill="#64748b" opacity="0.6"/>
  <rect x="530" y="658" width="60" height="8" rx="3" fill="#64748b" opacity="0.6"/>
  <rect x="680" y="658" width="40" height="8" rx="3" fill="#10b981" opacity="0.6"/>
  <rect x="830" y="658" width="70" height="8" rx="3" fill="#64748b" opacity="0.6"/>
  
  <defs>
    <linearGradient id="chartGrad" x1="0" y1="0" x2="0" y2="1">
      <stop offset="0%" stop-color="#2463eb"/>
      <stop offset="100%" stop-color="#2463eb" stop-opacity="0"/>
    </linearGradient>
  </defs>
</svg>
